<svg t="1762632031432" class="icon" viewBox="0 0 1024 1024" version="1.1" xmlns="http://www.w3.org/2000/svg" p-id="1017" width="64" height="64"><path d="M972.81728 608a44.672 44.672 0 0 1 40.896 63.168 44.288 44.288 0 0 1-11.136 15.104l-242.88 215.936c-21.568 19.136-46.72 28.288-75.52 27.392a105.088 105.088 0 0 1-73.728-31.808l-85.312-85.312a44.416 44.416 0 0 1-12.288-40.448 44.672 44.672 0 0 1 75.648-22.912l85.312 85.312a18.56 18.56 0 0 0 13.056 5.632 18.56 18.56 0 0 0 13.312-4.864l242.88-215.872 4.288-3.392A44.48 44.48 0 0 1 972.81728 608z m-160-512c47.744 0 88.448 16.896 122.24 50.56 33.664 33.792 50.56 74.496 50.56 122.24v192a44.544 44.544 0 0 1-27.648 41.408A44.736 44.736 0 0 1 896.01728 460.8v-60.096L560.91328 544.384a166.144 166.144 0 0 1-136.192 0L89.61728 400.64V716.8c0 11.328 3.2 21.312 9.6 29.952l5.376 6.272A49.28 49.28 0 0 0 140.81728 768h192a44.672 44.672 0 0 1 37.248 69.696 44.864 44.864 0 0 1-37.248 19.904h-192a135.68 135.68 0 0 1-99.584-41.216A135.68 135.68 0 0 1 0.01728 716.8v-448c0-47.744 16.896-88.448 50.56-122.24A166.464 166.464 0 0 1 172.81728 96z m0 89.6h-640c-22.976 0-42.56 8.128-58.88 24.32-16.192 16.32-24.32 35.904-24.32 58.88v34.432l370.432 158.784a80 80 0 0 0 65.536 0L896.01728 303.232V268.8c0-19.712-5.952-36.928-17.92-51.648l-6.4-7.168a80.128 80.128 0 0 0-58.88-24.384z" fill="#122133" p-id="1018"></path></svg>