<svg t="1762632076285" class="icon" viewBox="0 0 1024 1024" version="1.1" xmlns="http://www.w3.org/2000/svg" p-id="1256" width="200" height="200"><path d="M792.128 90.24l136.448 87.168q38.464 24.64 47.872 69.312 9.408 44.736-16 82.752L878.976 451.84a44.8 44.8 0 0 1-74.56-49.728l57.408-86.016-134.144 13.952q-129.984 13.568-216.192 111.808Q425.28 540.16 428.8 670.72a44.8 44.8 0 1 1-89.6 2.496Q334.72 507.456 444.16 382.72q109.312-124.608 274.24-141.824l123.136-12.864-97.6-62.336a44.8 44.8 0 1 1 48.256-75.52zM940.8 768v-108.288a44.8 44.8 0 1 0-89.6 0V768q0 34.496-24.384 58.88-24.32 24.32-58.88 24.32H256q-34.432 0-58.752-24.32Q172.8 802.432 172.8 768V256q0-34.432 24.32-58.88 24.384-24.32 58.88-24.32h256a44.8 44.8 0 1 0 0-89.6H256q-71.616 0-122.24 50.56Q83.2 184.512 83.2 256v512q0 71.552 50.56 122.24 50.624 50.56 122.24 50.56h512q71.552 0 122.176-50.56 50.56-50.688 50.56-122.24z" fill="#122133" p-id="1257"></path></svg>